<svg id="Capa_1" enable-background="new 0 0 512 512" height="512" viewBox="0 0 512 512" width="512" xmlns="http://www.w3.org/2000/svg"><g><g><g><g><g><path d="m38.47 128.5h435.041v255.032h-435.041z" fill="#9bb6f1"/></g><g><path d="m37.469 128.5h22.53v255.032h-22.53z" fill="#6990eb"/></g><g><path d="m473.511 301-75.576-60-81.935 60-135-105-142.53 105v82.532h435.041z" fill="#6de89a"/></g><g><path d="m61 361.032v-76.63l-22.53 16.598v82.532h435.041v-22.5z" fill="#2ce079"/></g><g><circle cx="316" cy="211" fill="#fbf2e2" r="22.521"/></g><g><path d="m331.542 217.979c-12.438 0-22.521-10.083-22.521-22.521 0-2.125.301-4.179.851-6.128-9.459 2.67-16.393 11.357-16.393 21.67 0 12.438 10.083 22.521 22.521 22.521 10.313 0 19.001-6.935 21.67-16.393-1.949.55-4.002.851-6.128.851z" fill="#f7e0ba"/></g><g><path d="m60.004 151.16h15v15h-15z" fill="#fff"/></g><g><path d="m90.004 151.16h15v15h-15z" fill="#fff"/></g></g></g></g><g><path d="m452.017 91.004v15h44.983v45.031h15v-60.031z"/><path d="m497 405.997-44.983-.001v15l59.983.001v-59.967h-15z"/><path d="m15 361.03h-15l.001 59.967 60.003-.001v-15l-45.003.001z"/><path d="m15.001 106.004 45.003-.001v-15l-60.003.002v60.03h15z"/><path d="m407.018 376.062h15v15h-15z"/><path d="m44.974 305.54 135.878-100.1 13.226 10.286 9.208-11.84-22.188-17.258-136.124 100.281v-75.875h-15v180.027h362.044v-14.999h-347.044z"/><path d="m437.017 376.062v14.999h45.01v-270.025h-452.053v74.998h15v-59.999h422.053v150.298l-68.937-54.73-81.982 60.033-99.512-77.398-9.209 11.84 108.45 84.349 81.885-59.964 69.305 55.022v70.577z"/><path d="m345.993 211.034c0-16.553-13.467-30.021-30.021-30.021-16.553 0-30.021 13.467-30.021 30.021s13.467 30.021 30.021 30.021c16.554-.001 30.021-13.468 30.021-30.021zm-45.042 0c0-8.283 6.738-15.021 15.021-15.021s15.021 6.738 15.021 15.021-6.738 15.021-15.021 15.021-15.021-6.739-15.021-15.021z"/></g></g></svg>