<svg id="Capa_1" enable-background="new 0 0 512 512" height="512" viewBox="0 0 512 512" width="512" xmlns="http://www.w3.org/2000/svg"><g><g><g><g><g><path d="m68.559 68.755h375.032v375.008h-375.032z" fill="#d3e0ef"/></g><g><path d="m91.035 421.287v-352.532h-22.476v375.008h375.031v-22.476z" fill="#9bb6f1"/></g><g><path d="m8.693 128.621v375.008h375.032v-59.866h-316.794l1.628-315.142z" fill="#e08ea2"/></g><g><path d="m29.6 481.722v-352.532h-22.477v375.008h375.032v-22.476z" fill="#d15573"/></g><g><path d="m201.404 130.625h299.92v60h-299.92z" fill="#ffc277" transform="matrix(.707 -.707 .707 .707 -10.667 295.498)"/></g><g><path d="m266.539 256.062-26.519-26.52-15.907 15.907 42.426 42.427 212.076-212.076-15.907-15.907z" fill="#ff905b"/></g><g><path d="m457.453 12.11-21.264 21.264 42.426 42.426 21.275-21.275z" fill="#6de89a"/></g><g><path d="m466.163 45.739h30.085v22.757h-30.085z" fill="#2ce079" transform="matrix(.707 -.707 .707 .707 100.554 356.994)"/></g><g><path d="m224.113 245.449-5.326 5.326-20.852 63.979 63.289-21.563 5.315-5.315z" fill="#fbf2e2"/></g><g><path d="m229.913 282.775 7.75-23.776-13.55-13.55-5.326 5.326-20.852 63.979 63.289-21.563 5.315-5.315-13.112-13.112z" fill="#f7e0ba"/></g><g><path d="m428.71 68.231h15v15.001h-15z" fill="#fff" transform="matrix(.707 -.707 .707 .707 74.212 330.628)"/></g><g><path d="m407.497 89.444h15v15.001h-15z" fill="#fff" transform="matrix(.707 -.707 .707 .707 52.999 321.841)"/></g><g><path d="m91.074 91.224h15v15h-15z" fill="#fff"/></g><g><path d="m121.091 91.224h15v15h-15z" fill="#fff"/></g></g></g></g><g><path d="m436.269 436.96h-361.182v-360.934h307.77l-118.591 118.518 10.612 10.605 162.781-162.682 31.833 31.812-202.845 202.719-31.832-31.813 28.934-28.916-10.612-10.605-40.839 40.815-26.067 79.931 79.171-26.957 246.598-246.444-53.069-53.009-61.068 61.029h-337.782v390.928h316.107v45.046h-30.007v14.997h45.013v-60.043h60.082v-316.814l-15.006 15.006v286.811zm-211.43-180.535 30.596 30.577-45.637 15.539zm234.094-235.218 31.841 31.804-10.67 10.664-31.833-31.812z"/><path d="m15.006 136.07h30.051v-14.997h-45.057v390.927h301.163v-14.997h-286.157z"/><path d="m316.169 497.003h15.006v14.997h-15.006z"/></g></g></svg>